<mxfile host="app.diagrams.net" modified="2021-04-05T15:09:51.754Z" agent="5.0 (Windows)" etag="JXx-sqm2lsbrDkUWPLoZ" version="14.4.9" type="github">
  <diagram id="sYsKwI7Xcxj4j8B7nzUK" name="Page-1">
    <mxGraphModel dx="1422" dy="791" grid="0" gridSize="10" guides="1" tooltips="1" connect="1" arrows="1" fold="1" page="0" pageScale="1" pageWidth="850" pageHeight="1100" math="0" shadow="0">
      <root>
        <mxCell id="0" />
        <mxCell id="1" parent="0" />
        <mxCell id="FgUWX7F1AZZLNMj_kqA5-8" value="" style="rounded=0;whiteSpace=wrap;html=1;" vertex="1" parent="1">
          <mxGeometry x="49" y="199" width="986" height="651" as="geometry" />
        </mxCell>
        <mxCell id="CEPdaJLZ4nfZLkmYM-Vw-4" value="" style="rounded=0;whiteSpace=wrap;html=1;" parent="1" vertex="1">
          <mxGeometry x="49" y="149" width="160" height="50" as="geometry" />
        </mxCell>
        <mxCell id="fEexxCGZfZVQ-VxQHh0E-3" value="" style="rounded=0;whiteSpace=wrap;html=1;fillColor=#FCFCFC;" parent="1" vertex="1">
          <mxGeometry x="320" y="350" width="20" height="450" as="geometry" />
        </mxCell>
        <mxCell id="fEexxCGZfZVQ-VxQHh0E-5" value="addActivity(a, p, e)" style="text;html=1;strokeColor=none;fillColor=none;align=center;verticalAlign=middle;whiteSpace=wrap;rounded=0;" parent="1" vertex="1">
          <mxGeometry x="160" y="350" width="120" height="20" as="geometry" />
        </mxCell>
        <mxCell id="fEexxCGZfZVQ-VxQHh0E-8" value="Time management" style="rounded=0;whiteSpace=wrap;html=1;fillColor=#FCFCFC;strokeColor=#0F0F0F;" parent="1" vertex="1">
          <mxGeometry x="270" y="260" width="120" height="60" as="geometry" />
        </mxCell>
        <mxCell id="fEexxCGZfZVQ-VxQHh0E-9" value="e: Employee" style="rounded=0;whiteSpace=wrap;html=1;fillColor=#FCFCFC;strokeColor=#0F0F0F;" parent="1" vertex="1">
          <mxGeometry x="720" y="260" width="120" height="60" as="geometry" />
        </mxCell>
        <mxCell id="fEexxCGZfZVQ-VxQHh0E-10" value="p: Project" style="rounded=0;whiteSpace=wrap;html=1;fillColor=#FCFCFC;strokeColor=#0F0F0F;" parent="1" vertex="1">
          <mxGeometry x="500" y="260" width="120" height="60" as="geometry" />
        </mxCell>
        <mxCell id="fEexxCGZfZVQ-VxQHh0E-11" value="a: Activity" style="rounded=0;whiteSpace=wrap;html=1;fillColor=#FCFCFC;strokeColor=#0F0F0F;" parent="1" vertex="1">
          <mxGeometry x="900" y="260" width="120" height="60" as="geometry" />
        </mxCell>
        <mxCell id="fEexxCGZfZVQ-VxQHh0E-16" value="" style="rounded=0;whiteSpace=wrap;html=1;fillColor=#FCFCFC;" parent="1" vertex="1">
          <mxGeometry x="120" y="350" width="20" height="470" as="geometry" />
        </mxCell>
        <mxCell id="fEexxCGZfZVQ-VxQHh0E-17" value="Employee" style="shape=umlActor;verticalLabelPosition=bottom;verticalAlign=top;html=1;outlineConnect=0;strokeColor=#0F0F0F;fillColor=#FCFCFC;" parent="1" vertex="1">
          <mxGeometry x="115" y="260" width="30" height="60" as="geometry" />
        </mxCell>
        <mxCell id="fEexxCGZfZVQ-VxQHh0E-20" value="" style="endArrow=classic;html=1;entryX=0;entryY=0.05;entryDx=0;entryDy=0;entryPerimeter=0;" parent="1" target="fEexxCGZfZVQ-VxQHh0E-3" edge="1">
          <mxGeometry width="50" height="50" relative="1" as="geometry">
            <mxPoint x="140" y="373" as="sourcePoint" />
            <mxPoint x="220" y="440" as="targetPoint" />
          </mxGeometry>
        </mxCell>
        <mxCell id="fEexxCGZfZVQ-VxQHh0E-22" value="" style="endArrow=none;dashed=1;html=1;exitX=0.5;exitY=1;exitDx=0;exitDy=0;entryX=0.5;entryY=0;entryDx=0;entryDy=0;" parent="1" source="fEexxCGZfZVQ-VxQHh0E-8" target="fEexxCGZfZVQ-VxQHh0E-3" edge="1">
          <mxGeometry width="50" height="50" relative="1" as="geometry">
            <mxPoint x="320" y="420" as="sourcePoint" />
            <mxPoint x="370" y="370" as="targetPoint" />
          </mxGeometry>
        </mxCell>
        <mxCell id="fEexxCGZfZVQ-VxQHh0E-25" value="" style="endArrow=none;dashed=1;html=1;exitX=0.5;exitY=0;exitDx=0;exitDy=0;entryX=0.5;entryY=1;entryDx=0;entryDy=0;" parent="1" source="fEexxCGZfZVQ-VxQHh0E-42" target="fEexxCGZfZVQ-VxQHh0E-10" edge="1">
          <mxGeometry width="50" height="50" relative="1" as="geometry">
            <mxPoint x="555" y="360" as="sourcePoint" />
            <mxPoint x="565" y="340" as="targetPoint" />
          </mxGeometry>
        </mxCell>
        <mxCell id="fEexxCGZfZVQ-VxQHh0E-34" value="" style="rounded=0;whiteSpace=wrap;html=1;strokeColor=#0F0F0F;fillColor=#FCFCFC;" parent="1" vertex="1">
          <mxGeometry x="330" y="390" width="20" height="30" as="geometry" />
        </mxCell>
        <mxCell id="fEexxCGZfZVQ-VxQHh0E-35" value="" style="endArrow=classic;html=1;entryX=1;entryY=0;entryDx=0;entryDy=0;rounded=0;" parent="1" target="fEexxCGZfZVQ-VxQHh0E-34" edge="1">
          <mxGeometry width="50" height="50" relative="1" as="geometry">
            <mxPoint x="340" y="370" as="sourcePoint" />
            <mxPoint x="460" y="340" as="targetPoint" />
            <Array as="points">
              <mxPoint x="370" y="370" />
              <mxPoint x="370" y="390" />
            </Array>
          </mxGeometry>
        </mxCell>
        <mxCell id="fEexxCGZfZVQ-VxQHh0E-36" value="employeeRegistered(e)" style="text;html=1;strokeColor=none;fillColor=none;align=center;verticalAlign=middle;whiteSpace=wrap;rounded=0;" parent="1" vertex="1">
          <mxGeometry x="420" y="370" width="40" height="20" as="geometry" />
        </mxCell>
        <mxCell id="fEexxCGZfZVQ-VxQHh0E-40" value="" style="endArrow=open;html=1;dashed=1;exitX=1;exitY=1;exitDx=0;exitDy=0;rounded=0;endFill=0;" parent="1" source="fEexxCGZfZVQ-VxQHh0E-34" edge="1">
          <mxGeometry width="50" height="50" relative="1" as="geometry">
            <mxPoint x="390" y="400" as="sourcePoint" />
            <mxPoint x="341" y="440" as="targetPoint" />
            <Array as="points">
              <mxPoint x="370" y="420" />
              <mxPoint x="370" y="440" />
            </Array>
          </mxGeometry>
        </mxCell>
        <mxCell id="fEexxCGZfZVQ-VxQHh0E-42" value="" style="rounded=0;whiteSpace=wrap;html=1;strokeColor=#0F0F0F;fillColor=#FCFCFC;" parent="1" vertex="1">
          <mxGeometry x="550" y="460" width="20" height="160" as="geometry" />
        </mxCell>
        <mxCell id="fEexxCGZfZVQ-VxQHh0E-43" value="" style="endArrow=classic;html=1;entryX=0;entryY=0;entryDx=0;entryDy=0;" parent="1" target="fEexxCGZfZVQ-VxQHh0E-42" edge="1">
          <mxGeometry width="50" height="50" relative="1" as="geometry">
            <mxPoint x="340" y="460" as="sourcePoint" />
            <mxPoint x="490" y="270" as="targetPoint" />
          </mxGeometry>
        </mxCell>
        <mxCell id="fEexxCGZfZVQ-VxQHh0E-44" value="isProjectManager(e)" style="text;html=1;strokeColor=none;fillColor=none;align=center;verticalAlign=middle;whiteSpace=wrap;rounded=0;" parent="1" vertex="1">
          <mxGeometry x="410" y="430" width="150" height="20" as="geometry" />
        </mxCell>
        <mxCell id="fEexxCGZfZVQ-VxQHh0E-62" value="" style="endArrow=open;html=1;dashed=1;exitX=0;exitY=1;exitDx=0;exitDy=0;endFill=0;" parent="1" source="fEexxCGZfZVQ-VxQHh0E-42" edge="1">
          <mxGeometry width="50" height="50" relative="1" as="geometry">
            <mxPoint x="540" y="300" as="sourcePoint" />
            <mxPoint x="342" y="620" as="targetPoint" />
          </mxGeometry>
        </mxCell>
        <mxCell id="fEexxCGZfZVQ-VxQHh0E-63" value="true" style="text;html=1;strokeColor=none;fillColor=none;align=center;verticalAlign=middle;whiteSpace=wrap;rounded=0;" parent="1" vertex="1">
          <mxGeometry x="425" y="600" width="40" height="20" as="geometry" />
        </mxCell>
        <mxCell id="fEexxCGZfZVQ-VxQHh0E-64" value="" style="rounded=0;whiteSpace=wrap;html=1;strokeColor=#0F0F0F;fillColor=#FCFCFC;" parent="1" vertex="1">
          <mxGeometry x="550" y="650" width="20" height="120" as="geometry" />
        </mxCell>
        <mxCell id="fEexxCGZfZVQ-VxQHh0E-65" value="" style="endArrow=classic;html=1;entryX=0;entryY=0;entryDx=0;entryDy=0;" parent="1" target="fEexxCGZfZVQ-VxQHh0E-64" edge="1">
          <mxGeometry width="50" height="50" relative="1" as="geometry">
            <mxPoint x="341" y="650" as="sourcePoint" />
            <mxPoint x="450" y="470" as="targetPoint" />
          </mxGeometry>
        </mxCell>
        <mxCell id="fEexxCGZfZVQ-VxQHh0E-66" value="addActivity(a,p)" style="text;html=1;strokeColor=none;fillColor=none;align=center;verticalAlign=middle;whiteSpace=wrap;rounded=0;" parent="1" vertex="1">
          <mxGeometry x="420" y="630" width="40" height="20" as="geometry" />
        </mxCell>
        <mxCell id="fEexxCGZfZVQ-VxQHh0E-69" value="" style="rounded=0;whiteSpace=wrap;html=1;strokeColor=#0F0F0F;fillColor=#FCFCFC;" parent="1" vertex="1">
          <mxGeometry x="560" y="685" width="20" height="40" as="geometry" />
        </mxCell>
        <mxCell id="fEexxCGZfZVQ-VxQHh0E-70" value="" style="endArrow=classic;html=1;exitX=0.998;exitY=0.164;exitDx=0;exitDy=0;exitPerimeter=0;entryX=1;entryY=0;entryDx=0;entryDy=0;rounded=0;edgeStyle=orthogonalEdgeStyle;" parent="1" source="fEexxCGZfZVQ-VxQHh0E-64" target="fEexxCGZfZVQ-VxQHh0E-69" edge="1">
          <mxGeometry width="50" height="50" relative="1" as="geometry">
            <mxPoint x="510" y="480" as="sourcePoint" />
            <mxPoint x="560" y="430" as="targetPoint" />
            <Array as="points">
              <mxPoint x="600" y="668" />
              <mxPoint x="600" y="685" />
            </Array>
          </mxGeometry>
        </mxCell>
        <mxCell id="fEexxCGZfZVQ-VxQHh0E-71" value="addActivity(a)" style="text;html=1;strokeColor=none;fillColor=none;align=center;verticalAlign=middle;whiteSpace=wrap;rounded=0;" parent="1" vertex="1">
          <mxGeometry x="620" y="665" width="40" height="20" as="geometry" />
        </mxCell>
        <mxCell id="fEexxCGZfZVQ-VxQHh0E-73" value="" style="endArrow=open;html=1;exitX=1;exitY=1;exitDx=0;exitDy=0;edgeStyle=orthogonalEdgeStyle;rounded=0;dashed=1;endFill=0;" parent="1" source="fEexxCGZfZVQ-VxQHh0E-69" edge="1">
          <mxGeometry width="50" height="50" relative="1" as="geometry">
            <mxPoint x="550" y="500" as="sourcePoint" />
            <mxPoint x="570" y="750" as="targetPoint" />
            <Array as="points">
              <mxPoint x="600" y="725" />
              <mxPoint x="600" y="750" />
            </Array>
          </mxGeometry>
        </mxCell>
        <mxCell id="fEexxCGZfZVQ-VxQHh0E-74" value="true" style="text;html=1;strokeColor=none;fillColor=none;align=center;verticalAlign=middle;whiteSpace=wrap;rounded=0;" parent="1" vertex="1">
          <mxGeometry x="600" y="730" width="40" height="20" as="geometry" />
        </mxCell>
        <mxCell id="fEexxCGZfZVQ-VxQHh0E-75" value="" style="endArrow=open;html=1;dashed=1;exitX=0;exitY=1;exitDx=0;exitDy=0;entryX=1.119;entryY=0.935;entryDx=0;entryDy=0;entryPerimeter=0;endFill=0;" parent="1" source="fEexxCGZfZVQ-VxQHh0E-64" target="fEexxCGZfZVQ-VxQHh0E-3" edge="1">
          <mxGeometry width="50" height="50" relative="1" as="geometry">
            <mxPoint x="520" y="830" as="sourcePoint" />
            <mxPoint x="570" y="780" as="targetPoint" />
          </mxGeometry>
        </mxCell>
        <mxCell id="fEexxCGZfZVQ-VxQHh0E-76" value="true" style="text;html=1;strokeColor=none;fillColor=none;align=center;verticalAlign=middle;whiteSpace=wrap;rounded=0;" parent="1" vertex="1">
          <mxGeometry x="425" y="750" width="40" height="20" as="geometry" />
        </mxCell>
        <mxCell id="fEexxCGZfZVQ-VxQHh0E-77" value="" style="endArrow=open;html=1;dashed=1;exitX=0;exitY=1;exitDx=0;exitDy=0;entryX=1.024;entryY=0.958;entryDx=0;entryDy=0;entryPerimeter=0;endFill=0;" parent="1" source="fEexxCGZfZVQ-VxQHh0E-3" target="fEexxCGZfZVQ-VxQHh0E-16" edge="1">
          <mxGeometry width="50" height="50" relative="1" as="geometry">
            <mxPoint x="220" y="500" as="sourcePoint" />
            <mxPoint x="143" y="799" as="targetPoint" />
          </mxGeometry>
        </mxCell>
        <mxCell id="fEexxCGZfZVQ-VxQHh0E-78" value="true" style="text;html=1;strokeColor=none;fillColor=none;align=center;verticalAlign=middle;whiteSpace=wrap;rounded=0;" parent="1" vertex="1">
          <mxGeometry x="220" y="780" width="40" height="20" as="geometry" />
        </mxCell>
        <mxCell id="fEexxCGZfZVQ-VxQHh0E-79" value="true" style="text;html=1;strokeColor=none;fillColor=none;align=center;verticalAlign=middle;whiteSpace=wrap;rounded=0;" parent="1" vertex="1">
          <mxGeometry x="370" y="420" width="40" height="20" as="geometry" />
        </mxCell>
        <mxCell id="CEPdaJLZ4nfZLkmYM-Vw-3" value="&lt;font style=&quot;font-size: 15px&quot;&gt;Add New Activity to a Project&lt;/font&gt;" style="text;html=1;strokeColor=none;fillColor=none;align=center;verticalAlign=middle;whiteSpace=wrap;rounded=0;" parent="1" vertex="1">
          <mxGeometry x="55" y="170" width="150" height="20" as="geometry" />
        </mxCell>
        <mxCell id="FgUWX7F1AZZLNMj_kqA5-5" value="" style="endArrow=none;dashed=1;html=1;dashPattern=1 3;strokeWidth=2;exitX=0.5;exitY=0;exitDx=0;exitDy=0;entryX=0.5;entryY=1;entryDx=0;entryDy=0;" edge="1" parent="1" source="fEexxCGZfZVQ-VxQHh0E-64" target="fEexxCGZfZVQ-VxQHh0E-42">
          <mxGeometry width="50" height="50" relative="1" as="geometry">
            <mxPoint x="690" y="490" as="sourcePoint" />
            <mxPoint x="740" y="440" as="targetPoint" />
          </mxGeometry>
        </mxCell>
      </root>
    </mxGraphModel>
  </diagram>
</mxfile>
